<mxfile host="Electron" modified="2024-05-24T11:35:16.967Z" agent="Mozilla/5.0 (Windows NT 10.0; Win64; x64) AppleWebKit/537.36 (KHTML, like Gecko) draw.io/24.1.0 Chrome/120.0.6099.109 Electron/28.1.0 Safari/537.36" etag="Fr7DTlX4aT9KTLfQ89oT" version="24.1.0" type="device">
  <diagram name="第 1 页" id="qncnM9tQ3hc52lPxgXXa">
    <mxGraphModel dx="2261" dy="2005" grid="1" gridSize="10" guides="1" tooltips="1" connect="1" arrows="1" fold="1" page="1" pageScale="1" pageWidth="827" pageHeight="1169" math="0" shadow="0">
      <root>
        <mxCell id="0" />
        <mxCell id="1" parent="0" />
        <mxCell id="z1glSKTf6uHRRMxj4ChZ-1" value="&lt;font face=&quot;Comic Sans MS&quot;&gt;Scope Chain&lt;/font&gt;" style="text;html=1;align=center;verticalAlign=middle;resizable=0;points=[];autosize=1;strokeColor=#d79b00;fillColor=#ffe6cc;fontFamily=Architects Daughter;fontSource=https%3A%2F%2Ffonts.googleapis.com%2Fcss%3Ffamily%3DArchitects%2BDaughter;" parent="1" vertex="1">
          <mxGeometry x="-40" y="-160" width="90" height="30" as="geometry" />
        </mxCell>
        <mxCell id="z1glSKTf6uHRRMxj4ChZ-6" style="rounded=0;sketch=1;hachureGap=4;jiggle=2;curveFitting=1;orthogonalLoop=1;jettySize=auto;html=1;entryX=0;entryY=0.5;entryDx=0;entryDy=0;fontFamily=Architects Daughter;fontSource=https%3A%2F%2Ffonts.googleapis.com%2Fcss%3Ffamily%3DArchitects%2BDaughter;exitX=1;exitY=0.25;exitDx=0;exitDy=0;" parent="1" source="z1glSKTf6uHRRMxj4ChZ-2" target="z1glSKTf6uHRRMxj4ChZ-3" edge="1">
          <mxGeometry relative="1" as="geometry" />
        </mxCell>
        <mxCell id="z1glSKTf6uHRRMxj4ChZ-8" style="rounded=0;sketch=1;hachureGap=4;jiggle=2;curveFitting=1;orthogonalLoop=1;jettySize=auto;html=1;entryX=0;entryY=0.5;entryDx=0;entryDy=0;fontFamily=Architects Daughter;fontSource=https%3A%2F%2Ffonts.googleapis.com%2Fcss%3Ffamily%3DArchitects%2BDaughter;exitX=1;exitY=0.5;exitDx=0;exitDy=0;" parent="1" source="z1glSKTf6uHRRMxj4ChZ-2" target="z1glSKTf6uHRRMxj4ChZ-4" edge="1">
          <mxGeometry relative="1" as="geometry" />
        </mxCell>
        <mxCell id="z1glSKTf6uHRRMxj4ChZ-9" style="rounded=0;sketch=1;hachureGap=4;jiggle=2;curveFitting=1;orthogonalLoop=1;jettySize=auto;html=1;entryX=0;entryY=0.5;entryDx=0;entryDy=0;fontFamily=Architects Daughter;fontSource=https%3A%2F%2Ffonts.googleapis.com%2Fcss%3Ffamily%3DArchitects%2BDaughter;exitX=1;exitY=0.75;exitDx=0;exitDy=0;" parent="1" source="z1glSKTf6uHRRMxj4ChZ-2" target="z1glSKTf6uHRRMxj4ChZ-5" edge="1">
          <mxGeometry relative="1" as="geometry" />
        </mxCell>
        <mxCell id="z1glSKTf6uHRRMxj4ChZ-2" value="&lt;font face=&quot;Comic Sans MS&quot;&gt;Global Scope&lt;br&gt;&lt;div style=&quot;&quot;&gt;&lt;span style=&quot;background-color: initial;&quot;&gt;（a，f1，f2，f3）&lt;/span&gt;&lt;/div&gt;&lt;/font&gt;" style="rounded=1;whiteSpace=wrap;html=1;sketch=1;hachureGap=4;jiggle=2;curveFitting=1;fontFamily=Architects Daughter;fontSource=https%3A%2F%2Ffonts.googleapis.com%2Fcss%3Ffamily%3DArchitects%2BDaughter;align=center;" parent="1" vertex="1">
          <mxGeometry x="170" y="-140" width="120" height="60" as="geometry" />
        </mxCell>
        <mxCell id="z1glSKTf6uHRRMxj4ChZ-70" style="edgeStyle=orthogonalEdgeStyle;rounded=0;sketch=1;hachureGap=4;jiggle=2;curveFitting=1;orthogonalLoop=1;jettySize=auto;html=1;entryX=0;entryY=0.5;entryDx=0;entryDy=0;fontFamily=Comic Sans MS;fontSource=https%3A%2F%2Ffonts.googleapis.com%2Fcss%3Ffamily%3DArchitects%2BDaughter;fontSize=12;fontColor=default;" parent="1" source="z1glSKTf6uHRRMxj4ChZ-3" target="z1glSKTf6uHRRMxj4ChZ-69" edge="1">
          <mxGeometry relative="1" as="geometry" />
        </mxCell>
        <mxCell id="z1glSKTf6uHRRMxj4ChZ-3" value="&lt;font face=&quot;Comic Sans MS&quot;&gt;f1 Scope&lt;/font&gt;" style="rounded=1;whiteSpace=wrap;html=1;sketch=1;hachureGap=4;jiggle=2;curveFitting=1;fontFamily=Architects Daughter;fontSource=https%3A%2F%2Ffonts.googleapis.com%2Fcss%3Ffamily%3DArchitects%2BDaughter;" parent="1" vertex="1">
          <mxGeometry x="340" y="-200" width="120" height="60" as="geometry" />
        </mxCell>
        <mxCell id="z1glSKTf6uHRRMxj4ChZ-4" value="f2 Scope" style="rounded=1;whiteSpace=wrap;html=1;sketch=1;hachureGap=4;jiggle=2;curveFitting=1;fontFamily=Comic Sans MS;" parent="1" vertex="1">
          <mxGeometry x="340" y="-120" width="120" height="60" as="geometry" />
        </mxCell>
        <mxCell id="z1glSKTf6uHRRMxj4ChZ-5" value="f3 Scope" style="rounded=1;whiteSpace=wrap;html=1;sketch=1;hachureGap=4;jiggle=2;curveFitting=1;fontFamily=Comic Sans MS;" parent="1" vertex="1">
          <mxGeometry x="340" y="-30" width="120" height="60" as="geometry" />
        </mxCell>
        <mxCell id="z1glSKTf6uHRRMxj4ChZ-13" value="Execution Stack" style="text;html=1;align=center;verticalAlign=middle;resizable=0;points=[];autosize=1;strokeColor=#6c8ebf;fillColor=#dae8fc;fontFamily=Comic Sans MS;fontSize=12;" parent="1" vertex="1">
          <mxGeometry x="-40" y="288" width="120" height="30" as="geometry" />
        </mxCell>
        <mxCell id="z1glSKTf6uHRRMxj4ChZ-31" value="&lt;span style=&quot;font-weight: 400; text-wrap: nowrap;&quot;&gt;Global Context&lt;/span&gt;" style="swimlane;whiteSpace=wrap;html=1;rounded=1;sketch=1;hachureGap=4;jiggle=2;curveFitting=1;strokeColor=default;align=center;verticalAlign=middle;fontFamily=Comic Sans MS;fontSize=12;fontColor=default;fillColor=default;" parent="1" vertex="1">
          <mxGeometry y="340" width="220" height="330" as="geometry" />
        </mxCell>
        <mxCell id="z1glSKTf6uHRRMxj4ChZ-20" value="&lt;span style=&quot;color: rgb(51, 51, 51); orphans: 4; text-align: left; white-space-collapse: preserve; background-color: rgb(255, 255, 255);&quot;&gt;&lt;font style=&quot;font-size: 10px;&quot;&gt;Lexical  Env&lt;/font&gt;&lt;/span&gt;" style="swimlane;fontStyle=0;childLayout=stackLayout;horizontal=1;startSize=30;horizontalStack=0;resizeParent=1;resizeParentMax=0;resizeLast=0;collapsible=1;marginBottom=0;whiteSpace=wrap;html=1;rounded=1;sketch=1;hachureGap=4;jiggle=2;curveFitting=1;strokeColor=default;align=center;verticalAlign=middle;fontFamily=Comic Sans MS;fontSize=12;fontColor=default;fillColor=default;" parent="z1glSKTf6uHRRMxj4ChZ-31" vertex="1">
          <mxGeometry x="40" y="40" width="140" height="90" as="geometry" />
        </mxCell>
        <mxCell id="z1glSKTf6uHRRMxj4ChZ-21" value="环境记录器：a，f1，..." style="text;strokeColor=none;fillColor=none;align=left;verticalAlign=middle;spacingLeft=4;spacingRight=4;overflow=hidden;points=[[0,0.5],[1,0.5]];portConstraint=eastwest;rotatable=0;whiteSpace=wrap;html=1;fontFamily=Comic Sans MS;fontSize=12;fontColor=default;" parent="z1glSKTf6uHRRMxj4ChZ-20" vertex="1">
          <mxGeometry y="30" width="140" height="30" as="geometry" />
        </mxCell>
        <mxCell id="z1glSKTf6uHRRMxj4ChZ-22" value="外部环境的引用" style="text;strokeColor=none;fillColor=none;align=left;verticalAlign=middle;spacingLeft=4;spacingRight=4;overflow=hidden;points=[[0,0.5],[1,0.5]];portConstraint=eastwest;rotatable=0;whiteSpace=wrap;html=1;fontFamily=Comic Sans MS;fontSize=12;fontColor=default;" parent="z1glSKTf6uHRRMxj4ChZ-20" vertex="1">
          <mxGeometry y="60" width="140" height="30" as="geometry" />
        </mxCell>
        <mxCell id="z1glSKTf6uHRRMxj4ChZ-24" value="&lt;font style=&quot;font-size: 10px;&quot;&gt;Varibale Env&lt;/font&gt;" style="swimlane;fontStyle=0;childLayout=stackLayout;horizontal=1;startSize=30;horizontalStack=0;resizeParent=1;resizeParentMax=0;resizeLast=0;collapsible=1;marginBottom=0;whiteSpace=wrap;html=1;rounded=1;sketch=1;hachureGap=4;jiggle=2;curveFitting=1;strokeColor=default;align=center;verticalAlign=middle;fontFamily=Comic Sans MS;fontSize=12;fontColor=default;fillColor=default;" parent="z1glSKTf6uHRRMxj4ChZ-31" vertex="1">
          <mxGeometry x="40" y="155" width="140" height="90" as="geometry" />
        </mxCell>
        <mxCell id="z1glSKTf6uHRRMxj4ChZ-25" value="环境记录器" style="text;strokeColor=none;fillColor=none;align=left;verticalAlign=middle;spacingLeft=4;spacingRight=4;overflow=hidden;points=[[0,0.5],[1,0.5]];portConstraint=eastwest;rotatable=0;whiteSpace=wrap;html=1;fontFamily=Comic Sans MS;fontSize=12;fontColor=default;" parent="z1glSKTf6uHRRMxj4ChZ-24" vertex="1">
          <mxGeometry y="30" width="140" height="30" as="geometry" />
        </mxCell>
        <mxCell id="z1glSKTf6uHRRMxj4ChZ-26" value="外部环境的引用" style="text;strokeColor=none;fillColor=none;align=left;verticalAlign=middle;spacingLeft=4;spacingRight=4;overflow=hidden;points=[[0,0.5],[1,0.5]];portConstraint=eastwest;rotatable=0;whiteSpace=wrap;html=1;fontFamily=Comic Sans MS;fontSize=12;fontColor=default;" parent="z1glSKTf6uHRRMxj4ChZ-24" vertex="1">
          <mxGeometry y="60" width="140" height="30" as="geometry" />
        </mxCell>
        <mxCell id="z1glSKTf6uHRRMxj4ChZ-29" value="" style="shape=flexArrow;endArrow=classic;html=1;rounded=0;sketch=1;hachureGap=4;jiggle=2;curveFitting=1;fontFamily=Comic Sans MS;fontSource=https%3A%2F%2Ffonts.googleapis.com%2Fcss%3Ffamily%3DArchitects%2BDaughter;fontSize=12;fontColor=default;" parent="z1glSKTf6uHRRMxj4ChZ-31" edge="1">
          <mxGeometry width="50" height="50" relative="1" as="geometry">
            <mxPoint x="85" y="310" as="sourcePoint" />
            <mxPoint x="135" y="260" as="targetPoint" />
          </mxGeometry>
        </mxCell>
        <mxCell id="z1glSKTf6uHRRMxj4ChZ-33" value="this" style="edgeLabel;html=1;align=center;verticalAlign=middle;resizable=0;points=[];rounded=1;sketch=1;hachureGap=4;jiggle=2;curveFitting=1;strokeColor=default;fontFamily=Comic Sans MS;fontSize=12;fontColor=default;fillColor=default;" parent="z1glSKTf6uHRRMxj4ChZ-29" vertex="1" connectable="0">
          <mxGeometry x="-0.4352" y="1" relative="1" as="geometry">
            <mxPoint as="offset" />
          </mxGeometry>
        </mxCell>
        <mxCell id="z1glSKTf6uHRRMxj4ChZ-34" value="&lt;span style=&quot;font-weight: 400; text-wrap: nowrap;&quot;&gt;f3 Context&lt;/span&gt;" style="swimlane;whiteSpace=wrap;html=1;rounded=1;sketch=1;hachureGap=4;jiggle=2;curveFitting=1;strokeColor=default;align=center;verticalAlign=middle;fontFamily=Comic Sans MS;fontSize=12;fontColor=default;fillColor=default;" parent="1" vertex="1">
          <mxGeometry x="290" y="340" width="220" height="330" as="geometry" />
        </mxCell>
        <mxCell id="z1glSKTf6uHRRMxj4ChZ-35" value="&lt;span style=&quot;color: rgb(51, 51, 51); orphans: 4; text-align: left; white-space-collapse: preserve; background-color: rgb(255, 255, 255);&quot;&gt;&lt;font style=&quot;font-size: 10px;&quot;&gt;Lexical  Env&lt;/font&gt;&lt;/span&gt;" style="swimlane;fontStyle=0;childLayout=stackLayout;horizontal=1;startSize=30;horizontalStack=0;resizeParent=1;resizeParentMax=0;resizeLast=0;collapsible=1;marginBottom=0;whiteSpace=wrap;html=1;rounded=1;sketch=1;hachureGap=4;jiggle=2;curveFitting=1;strokeColor=default;align=center;verticalAlign=middle;fontFamily=Comic Sans MS;fontSize=12;fontColor=default;fillColor=default;" parent="z1glSKTf6uHRRMxj4ChZ-34" vertex="1">
          <mxGeometry x="40" y="40" width="140" height="90" as="geometry" />
        </mxCell>
        <mxCell id="z1glSKTf6uHRRMxj4ChZ-36" value="环境记录器：a" style="text;strokeColor=none;fillColor=none;align=left;verticalAlign=middle;spacingLeft=4;spacingRight=4;overflow=hidden;points=[[0,0.5],[1,0.5]];portConstraint=eastwest;rotatable=0;whiteSpace=wrap;html=1;fontFamily=Comic Sans MS;fontSize=12;fontColor=default;" parent="z1glSKTf6uHRRMxj4ChZ-35" vertex="1">
          <mxGeometry y="30" width="140" height="30" as="geometry" />
        </mxCell>
        <mxCell id="z1glSKTf6uHRRMxj4ChZ-37" value="外部环境的引用" style="text;strokeColor=none;fillColor=none;align=left;verticalAlign=middle;spacingLeft=4;spacingRight=4;overflow=hidden;points=[[0,0.5],[1,0.5]];portConstraint=eastwest;rotatable=0;whiteSpace=wrap;html=1;fontFamily=Comic Sans MS;fontSize=12;fontColor=default;" parent="z1glSKTf6uHRRMxj4ChZ-35" vertex="1">
          <mxGeometry y="60" width="140" height="30" as="geometry" />
        </mxCell>
        <mxCell id="z1glSKTf6uHRRMxj4ChZ-38" value="&lt;font style=&quot;font-size: 10px;&quot;&gt;Varibale Env&lt;/font&gt;" style="swimlane;fontStyle=0;childLayout=stackLayout;horizontal=1;startSize=30;horizontalStack=0;resizeParent=1;resizeParentMax=0;resizeLast=0;collapsible=1;marginBottom=0;whiteSpace=wrap;html=1;rounded=1;sketch=1;hachureGap=4;jiggle=2;curveFitting=1;strokeColor=default;align=center;verticalAlign=middle;fontFamily=Comic Sans MS;fontSize=12;fontColor=default;fillColor=default;" parent="z1glSKTf6uHRRMxj4ChZ-34" vertex="1">
          <mxGeometry x="40" y="155" width="140" height="90" as="geometry" />
        </mxCell>
        <mxCell id="z1glSKTf6uHRRMxj4ChZ-39" value="环境记录器" style="text;strokeColor=none;fillColor=none;align=left;verticalAlign=middle;spacingLeft=4;spacingRight=4;overflow=hidden;points=[[0,0.5],[1,0.5]];portConstraint=eastwest;rotatable=0;whiteSpace=wrap;html=1;fontFamily=Comic Sans MS;fontSize=12;fontColor=default;" parent="z1glSKTf6uHRRMxj4ChZ-38" vertex="1">
          <mxGeometry y="30" width="140" height="30" as="geometry" />
        </mxCell>
        <mxCell id="z1glSKTf6uHRRMxj4ChZ-40" value="外部环境的引用" style="text;strokeColor=none;fillColor=none;align=left;verticalAlign=middle;spacingLeft=4;spacingRight=4;overflow=hidden;points=[[0,0.5],[1,0.5]];portConstraint=eastwest;rotatable=0;whiteSpace=wrap;html=1;fontFamily=Comic Sans MS;fontSize=12;fontColor=default;" parent="z1glSKTf6uHRRMxj4ChZ-38" vertex="1">
          <mxGeometry y="60" width="140" height="30" as="geometry" />
        </mxCell>
        <mxCell id="z1glSKTf6uHRRMxj4ChZ-41" value="" style="shape=flexArrow;endArrow=classic;html=1;rounded=0;sketch=1;hachureGap=4;jiggle=2;curveFitting=1;fontFamily=Comic Sans MS;fontSource=https%3A%2F%2Ffonts.googleapis.com%2Fcss%3Ffamily%3DArchitects%2BDaughter;fontSize=12;fontColor=default;" parent="z1glSKTf6uHRRMxj4ChZ-34" edge="1">
          <mxGeometry width="50" height="50" relative="1" as="geometry">
            <mxPoint x="85" y="310" as="sourcePoint" />
            <mxPoint x="135" y="260" as="targetPoint" />
          </mxGeometry>
        </mxCell>
        <mxCell id="z1glSKTf6uHRRMxj4ChZ-42" value="this" style="edgeLabel;html=1;align=center;verticalAlign=middle;resizable=0;points=[];rounded=1;sketch=1;hachureGap=4;jiggle=2;curveFitting=1;strokeColor=default;fontFamily=Comic Sans MS;fontSize=12;fontColor=default;fillColor=default;" parent="z1glSKTf6uHRRMxj4ChZ-41" vertex="1" connectable="0">
          <mxGeometry x="-0.4352" y="1" relative="1" as="geometry">
            <mxPoint as="offset" />
          </mxGeometry>
        </mxCell>
        <mxCell id="z1glSKTf6uHRRMxj4ChZ-51" value="null" style="rounded=1;whiteSpace=wrap;html=1;sketch=1;hachureGap=4;jiggle=2;curveFitting=1;strokeColor=default;align=center;verticalAlign=middle;fontFamily=Comic Sans MS;fontSize=12;fontColor=default;fillColor=default;" parent="1" vertex="1">
          <mxGeometry x="-165" y="420" width="70" height="35" as="geometry" />
        </mxCell>
        <mxCell id="z1glSKTf6uHRRMxj4ChZ-50" style="edgeStyle=orthogonalEdgeStyle;rounded=0;sketch=1;hachureGap=4;jiggle=2;curveFitting=1;orthogonalLoop=1;jettySize=auto;html=1;fontFamily=Comic Sans MS;fontSource=https%3A%2F%2Ffonts.googleapis.com%2Fcss%3Ffamily%3DArchitects%2BDaughter;fontSize=12;fontColor=default;entryX=1;entryY=0.5;entryDx=0;entryDy=0;" parent="1" source="z1glSKTf6uHRRMxj4ChZ-22" target="z1glSKTf6uHRRMxj4ChZ-51" edge="1">
          <mxGeometry relative="1" as="geometry">
            <mxPoint x="-70" y="455" as="targetPoint" />
          </mxGeometry>
        </mxCell>
        <mxCell id="z1glSKTf6uHRRMxj4ChZ-52" style="edgeStyle=orthogonalEdgeStyle;rounded=0;sketch=1;hachureGap=4;jiggle=2;curveFitting=1;orthogonalLoop=1;jettySize=auto;html=1;entryX=0.5;entryY=1;entryDx=0;entryDy=0;fontFamily=Comic Sans MS;fontSource=https%3A%2F%2Ffonts.googleapis.com%2Fcss%3Ffamily%3DArchitects%2BDaughter;fontSize=12;fontColor=default;" parent="1" source="z1glSKTf6uHRRMxj4ChZ-26" target="z1glSKTf6uHRRMxj4ChZ-51" edge="1">
          <mxGeometry relative="1" as="geometry" />
        </mxCell>
        <mxCell id="z1glSKTf6uHRRMxj4ChZ-55" value="&lt;span style=&quot;font-weight: 400; text-wrap: nowrap;&quot;&gt;f1 Context&lt;/span&gt;" style="swimlane;whiteSpace=wrap;html=1;rounded=1;sketch=1;hachureGap=4;jiggle=2;curveFitting=1;strokeColor=default;align=center;verticalAlign=middle;fontFamily=Comic Sans MS;fontSize=12;fontColor=default;fillColor=default;" parent="1" vertex="1">
          <mxGeometry x="560" y="340" width="220" height="330" as="geometry" />
        </mxCell>
        <mxCell id="z1glSKTf6uHRRMxj4ChZ-56" value="&lt;span style=&quot;color: rgb(51, 51, 51); orphans: 4; text-align: left; white-space-collapse: preserve; background-color: rgb(255, 255, 255);&quot;&gt;&lt;font style=&quot;font-size: 10px;&quot;&gt;Lexical  Env&lt;/font&gt;&lt;/span&gt;" style="swimlane;fontStyle=0;childLayout=stackLayout;horizontal=1;startSize=30;horizontalStack=0;resizeParent=1;resizeParentMax=0;resizeLast=0;collapsible=1;marginBottom=0;whiteSpace=wrap;html=1;rounded=1;sketch=1;hachureGap=4;jiggle=2;curveFitting=1;strokeColor=default;align=center;verticalAlign=middle;fontFamily=Comic Sans MS;fontSize=12;fontColor=default;fillColor=default;" parent="z1glSKTf6uHRRMxj4ChZ-55" vertex="1">
          <mxGeometry x="40" y="40" width="140" height="90" as="geometry" />
        </mxCell>
        <mxCell id="z1glSKTf6uHRRMxj4ChZ-111" style="edgeStyle=orthogonalEdgeStyle;rounded=0;hachureGap=4;orthogonalLoop=1;jettySize=auto;html=1;fontFamily=Comic Sans MS;fontSource=https%3A%2F%2Ffonts.googleapis.com%2Fcss%3Ffamily%3DArchitects%2BDaughter;fontSize=12;fontColor=default;shape=link;dashed=1;" parent="z1glSKTf6uHRRMxj4ChZ-56" source="z1glSKTf6uHRRMxj4ChZ-57" edge="1">
          <mxGeometry relative="1" as="geometry">
            <mxPoint x="-20" y="-110" as="targetPoint" />
          </mxGeometry>
        </mxCell>
        <mxCell id="z1glSKTf6uHRRMxj4ChZ-57" value="环境记录器：a，f4" style="text;strokeColor=none;fillColor=none;align=left;verticalAlign=middle;spacingLeft=4;spacingRight=4;overflow=hidden;points=[[0,0.5],[1,0.5]];portConstraint=eastwest;rotatable=0;whiteSpace=wrap;html=1;fontFamily=Comic Sans MS;fontSize=12;fontColor=default;" parent="z1glSKTf6uHRRMxj4ChZ-56" vertex="1">
          <mxGeometry y="30" width="140" height="30" as="geometry" />
        </mxCell>
        <mxCell id="z1glSKTf6uHRRMxj4ChZ-58" value="外部环境的引用" style="text;strokeColor=none;fillColor=none;align=left;verticalAlign=middle;spacingLeft=4;spacingRight=4;overflow=hidden;points=[[0,0.5],[1,0.5]];portConstraint=eastwest;rotatable=0;whiteSpace=wrap;html=1;fontFamily=Comic Sans MS;fontSize=12;fontColor=default;" parent="z1glSKTf6uHRRMxj4ChZ-56" vertex="1">
          <mxGeometry y="60" width="140" height="30" as="geometry" />
        </mxCell>
        <mxCell id="z1glSKTf6uHRRMxj4ChZ-59" value="&lt;font style=&quot;font-size: 10px;&quot;&gt;Varibale Env&lt;/font&gt;" style="swimlane;fontStyle=0;childLayout=stackLayout;horizontal=1;startSize=30;horizontalStack=0;resizeParent=1;resizeParentMax=0;resizeLast=0;collapsible=1;marginBottom=0;whiteSpace=wrap;html=1;rounded=1;sketch=1;hachureGap=4;jiggle=2;curveFitting=1;strokeColor=default;align=center;verticalAlign=middle;fontFamily=Comic Sans MS;fontSize=12;fontColor=default;fillColor=default;" parent="z1glSKTf6uHRRMxj4ChZ-55" vertex="1">
          <mxGeometry x="40" y="155" width="140" height="90" as="geometry" />
        </mxCell>
        <mxCell id="z1glSKTf6uHRRMxj4ChZ-60" value="环境记录器" style="text;strokeColor=none;fillColor=none;align=left;verticalAlign=middle;spacingLeft=4;spacingRight=4;overflow=hidden;points=[[0,0.5],[1,0.5]];portConstraint=eastwest;rotatable=0;whiteSpace=wrap;html=1;fontFamily=Comic Sans MS;fontSize=12;fontColor=default;" parent="z1glSKTf6uHRRMxj4ChZ-59" vertex="1">
          <mxGeometry y="30" width="140" height="30" as="geometry" />
        </mxCell>
        <mxCell id="z1glSKTf6uHRRMxj4ChZ-61" value="外部环境的引用" style="text;strokeColor=none;fillColor=none;align=left;verticalAlign=middle;spacingLeft=4;spacingRight=4;overflow=hidden;points=[[0,0.5],[1,0.5]];portConstraint=eastwest;rotatable=0;whiteSpace=wrap;html=1;fontFamily=Comic Sans MS;fontSize=12;fontColor=default;" parent="z1glSKTf6uHRRMxj4ChZ-59" vertex="1">
          <mxGeometry y="60" width="140" height="30" as="geometry" />
        </mxCell>
        <mxCell id="z1glSKTf6uHRRMxj4ChZ-62" value="" style="shape=flexArrow;endArrow=classic;html=1;rounded=0;sketch=1;hachureGap=4;jiggle=2;curveFitting=1;fontFamily=Comic Sans MS;fontSource=https%3A%2F%2Ffonts.googleapis.com%2Fcss%3Ffamily%3DArchitects%2BDaughter;fontSize=12;fontColor=default;" parent="z1glSKTf6uHRRMxj4ChZ-55" edge="1">
          <mxGeometry width="50" height="50" relative="1" as="geometry">
            <mxPoint x="85" y="310" as="sourcePoint" />
            <mxPoint x="135" y="260" as="targetPoint" />
          </mxGeometry>
        </mxCell>
        <mxCell id="z1glSKTf6uHRRMxj4ChZ-63" value="this" style="edgeLabel;html=1;align=center;verticalAlign=middle;resizable=0;points=[];rounded=1;sketch=1;hachureGap=4;jiggle=2;curveFitting=1;strokeColor=default;fontFamily=Comic Sans MS;fontSize=12;fontColor=default;fillColor=default;" parent="z1glSKTf6uHRRMxj4ChZ-62" vertex="1" connectable="0">
          <mxGeometry x="-0.4352" y="1" relative="1" as="geometry">
            <mxPoint as="offset" />
          </mxGeometry>
        </mxCell>
        <mxCell id="z1glSKTf6uHRRMxj4ChZ-67" style="edgeStyle=orthogonalEdgeStyle;rounded=0;hachureGap=4;orthogonalLoop=1;jettySize=auto;html=1;fontFamily=Comic Sans MS;fontSource=https%3A%2F%2Ffonts.googleapis.com%2Fcss%3Ffamily%3DArchitects%2BDaughter;fontSize=12;fontColor=default;dashed=1;shape=link;" parent="1" source="z1glSKTf6uHRRMxj4ChZ-21" target="z1glSKTf6uHRRMxj4ChZ-2" edge="1">
          <mxGeometry relative="1" as="geometry" />
        </mxCell>
        <mxCell id="z1glSKTf6uHRRMxj4ChZ-73" value="环境记录器中的变量到这里找" style="edgeLabel;html=1;align=center;verticalAlign=middle;resizable=0;points=[];rounded=1;sketch=1;hachureGap=4;jiggle=2;curveFitting=1;strokeColor=default;fontFamily=Comic Sans MS;fontSize=12;fontColor=default;fillColor=default;" parent="z1glSKTf6uHRRMxj4ChZ-67" vertex="1" connectable="0">
          <mxGeometry x="0.1623" y="3" relative="1" as="geometry">
            <mxPoint as="offset" />
          </mxGeometry>
        </mxCell>
        <mxCell id="z1glSKTf6uHRRMxj4ChZ-68" style="edgeStyle=orthogonalEdgeStyle;rounded=0;hachureGap=4;orthogonalLoop=1;jettySize=auto;html=1;entryX=0.5;entryY=1;entryDx=0;entryDy=0;fontFamily=Comic Sans MS;fontSource=https%3A%2F%2Ffonts.googleapis.com%2Fcss%3Ffamily%3DArchitects%2BDaughter;fontSize=12;fontColor=default;dashed=1;shape=link;" parent="1" source="z1glSKTf6uHRRMxj4ChZ-36" target="z1glSKTf6uHRRMxj4ChZ-5" edge="1">
          <mxGeometry relative="1" as="geometry" />
        </mxCell>
        <mxCell id="z1glSKTf6uHRRMxj4ChZ-74" value="创建上下文后会记录这个&lt;br&gt;函数的环境，环境包含&lt;br&gt;各类变量，当环境中找不到时&lt;br&gt;就按照作用域链去找" style="edgeLabel;html=1;align=center;verticalAlign=middle;resizable=0;points=[];rounded=1;sketch=1;hachureGap=4;jiggle=2;curveFitting=1;strokeColor=default;fontFamily=Comic Sans MS;fontSize=12;fontColor=default;fillColor=default;" parent="z1glSKTf6uHRRMxj4ChZ-68" vertex="1" connectable="0">
          <mxGeometry x="-0.0126" y="-3" relative="1" as="geometry">
            <mxPoint as="offset" />
          </mxGeometry>
        </mxCell>
        <mxCell id="z1glSKTf6uHRRMxj4ChZ-69" value="&lt;font face=&quot;Comic Sans MS&quot;&gt;f4 Scope&lt;/font&gt;" style="rounded=1;whiteSpace=wrap;html=1;sketch=1;hachureGap=4;jiggle=2;curveFitting=1;fontFamily=Architects Daughter;fontSource=https%3A%2F%2Ffonts.googleapis.com%2Fcss%3Ffamily%3DArchitects%2BDaughter;" parent="1" vertex="1">
          <mxGeometry x="500" y="-200" width="120" height="60" as="geometry" />
        </mxCell>
        <mxCell id="z1glSKTf6uHRRMxj4ChZ-71" value="词法作用域" style="text;html=1;align=center;verticalAlign=middle;resizable=0;points=[];autosize=1;strokeColor=none;fillColor=none;fontFamily=Comic Sans MS;fontSize=12;fontColor=default;" parent="1" vertex="1">
          <mxGeometry x="40" y="-130" width="80" height="30" as="geometry" />
        </mxCell>
        <mxCell id="z1glSKTf6uHRRMxj4ChZ-75" style="edgeStyle=orthogonalEdgeStyle;rounded=0;sketch=1;hachureGap=4;jiggle=2;curveFitting=1;orthogonalLoop=1;jettySize=auto;html=1;entryX=0.989;entryY=0.108;entryDx=0;entryDy=0;fontFamily=Comic Sans MS;fontSource=https%3A%2F%2Ffonts.googleapis.com%2Fcss%3Ffamily%3DArchitects%2BDaughter;fontSize=12;fontColor=default;entryPerimeter=0;fillColor=#ffe6cc;strokeColor=#d79b00;" parent="1" source="z1glSKTf6uHRRMxj4ChZ-37" target="z1glSKTf6uHRRMxj4ChZ-20" edge="1">
          <mxGeometry relative="1" as="geometry" />
        </mxCell>
        <mxCell id="z1glSKTf6uHRRMxj4ChZ-76" style="edgeStyle=orthogonalEdgeStyle;rounded=0;sketch=1;hachureGap=4;jiggle=2;curveFitting=1;orthogonalLoop=1;jettySize=auto;html=1;entryX=0.896;entryY=0.023;entryDx=0;entryDy=0;entryPerimeter=0;fontFamily=Comic Sans MS;fontSource=https%3A%2F%2Ffonts.googleapis.com%2Fcss%3Ffamily%3DArchitects%2BDaughter;fontSize=12;fontColor=default;fillColor=#ffe6cc;strokeColor=#d79b00;" parent="1" source="z1glSKTf6uHRRMxj4ChZ-58" target="z1glSKTf6uHRRMxj4ChZ-20" edge="1">
          <mxGeometry relative="1" as="geometry">
            <Array as="points">
              <mxPoint x="390" y="455" />
              <mxPoint x="390" y="382" />
            </Array>
          </mxGeometry>
        </mxCell>
        <mxCell id="z1glSKTf6uHRRMxj4ChZ-77" value="这条线是依据&lt;br&gt;作用域链来连到" style="edgeLabel;html=1;align=center;verticalAlign=middle;resizable=0;points=[];rounded=1;sketch=1;hachureGap=4;jiggle=2;curveFitting=1;strokeColor=default;fontFamily=Comic Sans MS;fontSize=12;fontColor=default;fillColor=default;" parent="z1glSKTf6uHRRMxj4ChZ-76" vertex="1" connectable="0">
          <mxGeometry x="-0.7494" relative="1" as="geometry">
            <mxPoint as="offset" />
          </mxGeometry>
        </mxCell>
        <mxCell id="z1glSKTf6uHRRMxj4ChZ-78" value="&lt;span style=&quot;font-weight: 400; text-wrap: nowrap;&quot;&gt;f2 Context&lt;/span&gt;" style="swimlane;whiteSpace=wrap;html=1;rounded=1;sketch=1;hachureGap=4;jiggle=2;curveFitting=1;strokeColor=default;align=center;verticalAlign=middle;fontFamily=Comic Sans MS;fontSize=12;fontColor=default;fillColor=default;" parent="1" vertex="1">
          <mxGeometry x="560" y="700" width="220" height="330" as="geometry" />
        </mxCell>
        <mxCell id="z1glSKTf6uHRRMxj4ChZ-79" value="&lt;span style=&quot;color: rgb(51, 51, 51); orphans: 4; text-align: left; white-space-collapse: preserve; background-color: rgb(255, 255, 255);&quot;&gt;&lt;font style=&quot;font-size: 10px;&quot;&gt;Lexical  Env&lt;/font&gt;&lt;/span&gt;" style="swimlane;fontStyle=0;childLayout=stackLayout;horizontal=1;startSize=30;horizontalStack=0;resizeParent=1;resizeParentMax=0;resizeLast=0;collapsible=1;marginBottom=0;whiteSpace=wrap;html=1;rounded=1;sketch=1;hachureGap=4;jiggle=2;curveFitting=1;strokeColor=default;align=center;verticalAlign=middle;fontFamily=Comic Sans MS;fontSize=12;fontColor=default;fillColor=default;" parent="z1glSKTf6uHRRMxj4ChZ-78" vertex="1">
          <mxGeometry x="40" y="40" width="140" height="90" as="geometry" />
        </mxCell>
        <mxCell id="z1glSKTf6uHRRMxj4ChZ-80" value="环境记录器：a" style="text;strokeColor=none;fillColor=none;align=left;verticalAlign=middle;spacingLeft=4;spacingRight=4;overflow=hidden;points=[[0,0.5],[1,0.5]];portConstraint=eastwest;rotatable=0;whiteSpace=wrap;html=1;fontFamily=Comic Sans MS;fontSize=12;fontColor=default;" parent="z1glSKTf6uHRRMxj4ChZ-79" vertex="1">
          <mxGeometry y="30" width="140" height="30" as="geometry" />
        </mxCell>
        <mxCell id="z1glSKTf6uHRRMxj4ChZ-81" value="外部环境的引用" style="text;strokeColor=none;fillColor=none;align=left;verticalAlign=middle;spacingLeft=4;spacingRight=4;overflow=hidden;points=[[0,0.5],[1,0.5]];portConstraint=eastwest;rotatable=0;whiteSpace=wrap;html=1;fontFamily=Comic Sans MS;fontSize=12;fontColor=default;" parent="z1glSKTf6uHRRMxj4ChZ-79" vertex="1">
          <mxGeometry y="60" width="140" height="30" as="geometry" />
        </mxCell>
        <mxCell id="z1glSKTf6uHRRMxj4ChZ-82" value="&lt;font style=&quot;font-size: 10px;&quot;&gt;Varibale Env&lt;/font&gt;" style="swimlane;fontStyle=0;childLayout=stackLayout;horizontal=1;startSize=30;horizontalStack=0;resizeParent=1;resizeParentMax=0;resizeLast=0;collapsible=1;marginBottom=0;whiteSpace=wrap;html=1;rounded=1;sketch=1;hachureGap=4;jiggle=2;curveFitting=1;strokeColor=default;align=center;verticalAlign=middle;fontFamily=Comic Sans MS;fontSize=12;fontColor=default;fillColor=default;" parent="z1glSKTf6uHRRMxj4ChZ-78" vertex="1">
          <mxGeometry x="40" y="155" width="140" height="90" as="geometry" />
        </mxCell>
        <mxCell id="z1glSKTf6uHRRMxj4ChZ-83" value="环境记录器" style="text;strokeColor=none;fillColor=none;align=left;verticalAlign=middle;spacingLeft=4;spacingRight=4;overflow=hidden;points=[[0,0.5],[1,0.5]];portConstraint=eastwest;rotatable=0;whiteSpace=wrap;html=1;fontFamily=Comic Sans MS;fontSize=12;fontColor=default;" parent="z1glSKTf6uHRRMxj4ChZ-82" vertex="1">
          <mxGeometry y="30" width="140" height="30" as="geometry" />
        </mxCell>
        <mxCell id="z1glSKTf6uHRRMxj4ChZ-84" value="外部环境的引用" style="text;strokeColor=none;fillColor=none;align=left;verticalAlign=middle;spacingLeft=4;spacingRight=4;overflow=hidden;points=[[0,0.5],[1,0.5]];portConstraint=eastwest;rotatable=0;whiteSpace=wrap;html=1;fontFamily=Comic Sans MS;fontSize=12;fontColor=default;" parent="z1glSKTf6uHRRMxj4ChZ-82" vertex="1">
          <mxGeometry y="60" width="140" height="30" as="geometry" />
        </mxCell>
        <mxCell id="z1glSKTf6uHRRMxj4ChZ-85" value="" style="shape=flexArrow;endArrow=classic;html=1;rounded=0;sketch=1;hachureGap=4;jiggle=2;curveFitting=1;fontFamily=Comic Sans MS;fontSource=https%3A%2F%2Ffonts.googleapis.com%2Fcss%3Ffamily%3DArchitects%2BDaughter;fontSize=12;fontColor=default;" parent="z1glSKTf6uHRRMxj4ChZ-78" edge="1">
          <mxGeometry width="50" height="50" relative="1" as="geometry">
            <mxPoint x="85" y="310" as="sourcePoint" />
            <mxPoint x="135" y="260" as="targetPoint" />
          </mxGeometry>
        </mxCell>
        <mxCell id="z1glSKTf6uHRRMxj4ChZ-86" value="this" style="edgeLabel;html=1;align=center;verticalAlign=middle;resizable=0;points=[];rounded=1;sketch=1;hachureGap=4;jiggle=2;curveFitting=1;strokeColor=default;fontFamily=Comic Sans MS;fontSize=12;fontColor=default;fillColor=default;" parent="z1glSKTf6uHRRMxj4ChZ-85" vertex="1" connectable="0">
          <mxGeometry x="-0.4352" y="1" relative="1" as="geometry">
            <mxPoint as="offset" />
          </mxGeometry>
        </mxCell>
        <mxCell id="z1glSKTf6uHRRMxj4ChZ-89" style="edgeStyle=orthogonalEdgeStyle;rounded=0;sketch=1;hachureGap=4;jiggle=2;curveFitting=1;orthogonalLoop=1;jettySize=auto;html=1;fontFamily=Comic Sans MS;fontSource=https%3A%2F%2Ffonts.googleapis.com%2Fcss%3Ffamily%3DArchitects%2BDaughter;fontSize=12;fontColor=default;fillColor=#ffe6cc;strokeColor=#d79b00;" parent="1" source="z1glSKTf6uHRRMxj4ChZ-81" target="z1glSKTf6uHRRMxj4ChZ-20" edge="1">
          <mxGeometry relative="1" as="geometry" />
        </mxCell>
        <mxCell id="z1glSKTf6uHRRMxj4ChZ-90" value="&lt;span style=&quot;font-weight: 400; text-wrap: nowrap;&quot;&gt;f1 Context&lt;/span&gt;" style="swimlane;whiteSpace=wrap;html=1;rounded=1;sketch=1;hachureGap=4;jiggle=2;curveFitting=1;strokeColor=default;align=center;verticalAlign=middle;fontFamily=Comic Sans MS;fontSize=12;fontColor=default;fillColor=default;" parent="1" vertex="1">
          <mxGeometry x="840" y="710" width="220" height="330" as="geometry" />
        </mxCell>
        <mxCell id="z1glSKTf6uHRRMxj4ChZ-91" value="&lt;span style=&quot;color: rgb(51, 51, 51); orphans: 4; text-align: left; white-space-collapse: preserve; background-color: rgb(255, 255, 255);&quot;&gt;&lt;font style=&quot;font-size: 10px;&quot;&gt;Lexical  Env&lt;/font&gt;&lt;/span&gt;" style="swimlane;fontStyle=0;childLayout=stackLayout;horizontal=1;startSize=30;horizontalStack=0;resizeParent=1;resizeParentMax=0;resizeLast=0;collapsible=1;marginBottom=0;whiteSpace=wrap;html=1;rounded=1;sketch=1;hachureGap=4;jiggle=2;curveFitting=1;strokeColor=default;align=center;verticalAlign=middle;fontFamily=Comic Sans MS;fontSize=12;fontColor=default;fillColor=default;" parent="z1glSKTf6uHRRMxj4ChZ-90" vertex="1">
          <mxGeometry x="40" y="40" width="140" height="90" as="geometry" />
        </mxCell>
        <mxCell id="z1glSKTf6uHRRMxj4ChZ-92" value="环境记录器：f4" style="text;strokeColor=none;fillColor=none;align=left;verticalAlign=middle;spacingLeft=4;spacingRight=4;overflow=hidden;points=[[0,0.5],[1,0.5]];portConstraint=eastwest;rotatable=0;whiteSpace=wrap;html=1;fontFamily=Comic Sans MS;fontSize=12;fontColor=default;" parent="z1glSKTf6uHRRMxj4ChZ-91" vertex="1">
          <mxGeometry y="30" width="140" height="30" as="geometry" />
        </mxCell>
        <mxCell id="z1glSKTf6uHRRMxj4ChZ-93" value="外部环境的引用" style="text;strokeColor=none;fillColor=none;align=left;verticalAlign=middle;spacingLeft=4;spacingRight=4;overflow=hidden;points=[[0,0.5],[1,0.5]];portConstraint=eastwest;rotatable=0;whiteSpace=wrap;html=1;fontFamily=Comic Sans MS;fontSize=12;fontColor=default;" parent="z1glSKTf6uHRRMxj4ChZ-91" vertex="1">
          <mxGeometry y="60" width="140" height="30" as="geometry" />
        </mxCell>
        <mxCell id="z1glSKTf6uHRRMxj4ChZ-94" value="&lt;font style=&quot;font-size: 10px;&quot;&gt;Varibale Env&lt;/font&gt;" style="swimlane;fontStyle=0;childLayout=stackLayout;horizontal=1;startSize=30;horizontalStack=0;resizeParent=1;resizeParentMax=0;resizeLast=0;collapsible=1;marginBottom=0;whiteSpace=wrap;html=1;rounded=1;sketch=1;hachureGap=4;jiggle=2;curveFitting=1;strokeColor=default;align=center;verticalAlign=middle;fontFamily=Comic Sans MS;fontSize=12;fontColor=default;fillColor=default;" parent="z1glSKTf6uHRRMxj4ChZ-90" vertex="1">
          <mxGeometry x="40" y="155" width="140" height="90" as="geometry" />
        </mxCell>
        <mxCell id="z1glSKTf6uHRRMxj4ChZ-95" value="环境记录器" style="text;strokeColor=none;fillColor=none;align=left;verticalAlign=middle;spacingLeft=4;spacingRight=4;overflow=hidden;points=[[0,0.5],[1,0.5]];portConstraint=eastwest;rotatable=0;whiteSpace=wrap;html=1;fontFamily=Comic Sans MS;fontSize=12;fontColor=default;" parent="z1glSKTf6uHRRMxj4ChZ-94" vertex="1">
          <mxGeometry y="30" width="140" height="30" as="geometry" />
        </mxCell>
        <mxCell id="z1glSKTf6uHRRMxj4ChZ-96" value="外部环境的引用" style="text;strokeColor=none;fillColor=none;align=left;verticalAlign=middle;spacingLeft=4;spacingRight=4;overflow=hidden;points=[[0,0.5],[1,0.5]];portConstraint=eastwest;rotatable=0;whiteSpace=wrap;html=1;fontFamily=Comic Sans MS;fontSize=12;fontColor=default;" parent="z1glSKTf6uHRRMxj4ChZ-94" vertex="1">
          <mxGeometry y="60" width="140" height="30" as="geometry" />
        </mxCell>
        <mxCell id="z1glSKTf6uHRRMxj4ChZ-97" value="" style="shape=flexArrow;endArrow=classic;html=1;rounded=0;sketch=1;hachureGap=4;jiggle=2;curveFitting=1;fontFamily=Comic Sans MS;fontSource=https%3A%2F%2Ffonts.googleapis.com%2Fcss%3Ffamily%3DArchitects%2BDaughter;fontSize=12;fontColor=default;" parent="z1glSKTf6uHRRMxj4ChZ-90" edge="1">
          <mxGeometry width="50" height="50" relative="1" as="geometry">
            <mxPoint x="85" y="310" as="sourcePoint" />
            <mxPoint x="135" y="260" as="targetPoint" />
          </mxGeometry>
        </mxCell>
        <mxCell id="z1glSKTf6uHRRMxj4ChZ-98" value="this" style="edgeLabel;html=1;align=center;verticalAlign=middle;resizable=0;points=[];rounded=1;sketch=1;hachureGap=4;jiggle=2;curveFitting=1;strokeColor=default;fontFamily=Comic Sans MS;fontSize=12;fontColor=default;fillColor=default;" parent="z1glSKTf6uHRRMxj4ChZ-97" vertex="1" connectable="0">
          <mxGeometry x="-0.4352" y="1" relative="1" as="geometry">
            <mxPoint as="offset" />
          </mxGeometry>
        </mxCell>
        <mxCell id="z1glSKTf6uHRRMxj4ChZ-99" style="edgeStyle=orthogonalEdgeStyle;rounded=0;sketch=1;hachureGap=4;jiggle=2;curveFitting=1;orthogonalLoop=1;jettySize=auto;html=1;entryX=0.221;entryY=1;entryDx=0;entryDy=0;entryPerimeter=0;fontFamily=Comic Sans MS;fontSource=https%3A%2F%2Ffonts.googleapis.com%2Fcss%3Ffamily%3DArchitects%2BDaughter;fontSize=12;fontColor=default;fillColor=#ffe6cc;strokeColor=#d79b00;" parent="1" source="z1glSKTf6uHRRMxj4ChZ-93" target="z1glSKTf6uHRRMxj4ChZ-22" edge="1">
          <mxGeometry relative="1" as="geometry" />
        </mxCell>
        <mxCell id="z1glSKTf6uHRRMxj4ChZ-100" value="&lt;span style=&quot;font-weight: 400; text-wrap: nowrap;&quot;&gt;f4 Context&lt;/span&gt;" style="swimlane;whiteSpace=wrap;html=1;rounded=1;sketch=1;hachureGap=4;jiggle=2;curveFitting=1;strokeColor=default;align=center;verticalAlign=middle;fontFamily=Comic Sans MS;fontSize=12;fontColor=default;fillColor=default;" parent="1" vertex="1">
          <mxGeometry x="840" y="340" width="220" height="330" as="geometry" />
        </mxCell>
        <mxCell id="z1glSKTf6uHRRMxj4ChZ-101" value="&lt;span style=&quot;color: rgb(51, 51, 51); orphans: 4; text-align: left; white-space-collapse: preserve; background-color: rgb(255, 255, 255);&quot;&gt;&lt;font style=&quot;font-size: 10px;&quot;&gt;Lexical  Env&lt;/font&gt;&lt;/span&gt;" style="swimlane;fontStyle=0;childLayout=stackLayout;horizontal=1;startSize=30;horizontalStack=0;resizeParent=1;resizeParentMax=0;resizeLast=0;collapsible=1;marginBottom=0;whiteSpace=wrap;html=1;rounded=1;sketch=1;hachureGap=4;jiggle=2;curveFitting=1;strokeColor=default;align=center;verticalAlign=middle;fontFamily=Comic Sans MS;fontSize=12;fontColor=default;fillColor=default;" parent="z1glSKTf6uHRRMxj4ChZ-100" vertex="1">
          <mxGeometry x="40" y="40" width="140" height="90" as="geometry" />
        </mxCell>
        <mxCell id="z1glSKTf6uHRRMxj4ChZ-112" style="edgeStyle=orthogonalEdgeStyle;rounded=0;hachureGap=4;orthogonalLoop=1;jettySize=auto;html=1;fontFamily=Comic Sans MS;fontSource=https%3A%2F%2Ffonts.googleapis.com%2Fcss%3Ffamily%3DArchitects%2BDaughter;fontSize=12;fontColor=default;shape=link;dashed=1;" parent="z1glSKTf6uHRRMxj4ChZ-101" source="z1glSKTf6uHRRMxj4ChZ-102" edge="1">
          <mxGeometry relative="1" as="geometry">
            <mxPoint x="-30" y="-100" as="targetPoint" />
          </mxGeometry>
        </mxCell>
        <mxCell id="z1glSKTf6uHRRMxj4ChZ-102" value="环境记录器：" style="text;strokeColor=none;fillColor=none;align=left;verticalAlign=middle;spacingLeft=4;spacingRight=4;overflow=hidden;points=[[0,0.5],[1,0.5]];portConstraint=eastwest;rotatable=0;whiteSpace=wrap;html=1;fontFamily=Comic Sans MS;fontSize=12;fontColor=default;" parent="z1glSKTf6uHRRMxj4ChZ-101" vertex="1">
          <mxGeometry y="30" width="140" height="30" as="geometry" />
        </mxCell>
        <mxCell id="z1glSKTf6uHRRMxj4ChZ-103" value="外部环境的引用" style="text;strokeColor=none;fillColor=none;align=left;verticalAlign=middle;spacingLeft=4;spacingRight=4;overflow=hidden;points=[[0,0.5],[1,0.5]];portConstraint=eastwest;rotatable=0;whiteSpace=wrap;html=1;fontFamily=Comic Sans MS;fontSize=12;fontColor=default;" parent="z1glSKTf6uHRRMxj4ChZ-101" vertex="1">
          <mxGeometry y="60" width="140" height="30" as="geometry" />
        </mxCell>
        <mxCell id="z1glSKTf6uHRRMxj4ChZ-104" value="&lt;font style=&quot;font-size: 10px;&quot;&gt;Varibale Env&lt;/font&gt;" style="swimlane;fontStyle=0;childLayout=stackLayout;horizontal=1;startSize=30;horizontalStack=0;resizeParent=1;resizeParentMax=0;resizeLast=0;collapsible=1;marginBottom=0;whiteSpace=wrap;html=1;rounded=1;sketch=1;hachureGap=4;jiggle=2;curveFitting=1;strokeColor=default;align=center;verticalAlign=middle;fontFamily=Comic Sans MS;fontSize=12;fontColor=default;fillColor=default;" parent="z1glSKTf6uHRRMxj4ChZ-100" vertex="1">
          <mxGeometry x="40" y="155" width="140" height="90" as="geometry" />
        </mxCell>
        <mxCell id="z1glSKTf6uHRRMxj4ChZ-105" value="环境记录器" style="text;strokeColor=none;fillColor=none;align=left;verticalAlign=middle;spacingLeft=4;spacingRight=4;overflow=hidden;points=[[0,0.5],[1,0.5]];portConstraint=eastwest;rotatable=0;whiteSpace=wrap;html=1;fontFamily=Comic Sans MS;fontSize=12;fontColor=default;" parent="z1glSKTf6uHRRMxj4ChZ-104" vertex="1">
          <mxGeometry y="30" width="140" height="30" as="geometry" />
        </mxCell>
        <mxCell id="z1glSKTf6uHRRMxj4ChZ-106" value="外部环境的引用" style="text;strokeColor=none;fillColor=none;align=left;verticalAlign=middle;spacingLeft=4;spacingRight=4;overflow=hidden;points=[[0,0.5],[1,0.5]];portConstraint=eastwest;rotatable=0;whiteSpace=wrap;html=1;fontFamily=Comic Sans MS;fontSize=12;fontColor=default;" parent="z1glSKTf6uHRRMxj4ChZ-104" vertex="1">
          <mxGeometry y="60" width="140" height="30" as="geometry" />
        </mxCell>
        <mxCell id="z1glSKTf6uHRRMxj4ChZ-107" value="" style="shape=flexArrow;endArrow=classic;html=1;rounded=0;sketch=1;hachureGap=4;jiggle=2;curveFitting=1;fontFamily=Comic Sans MS;fontSource=https%3A%2F%2Ffonts.googleapis.com%2Fcss%3Ffamily%3DArchitects%2BDaughter;fontSize=12;fontColor=default;" parent="z1glSKTf6uHRRMxj4ChZ-100" edge="1">
          <mxGeometry width="50" height="50" relative="1" as="geometry">
            <mxPoint x="85" y="310" as="sourcePoint" />
            <mxPoint x="135" y="260" as="targetPoint" />
          </mxGeometry>
        </mxCell>
        <mxCell id="z1glSKTf6uHRRMxj4ChZ-108" value="this" style="edgeLabel;html=1;align=center;verticalAlign=middle;resizable=0;points=[];rounded=1;sketch=1;hachureGap=4;jiggle=2;curveFitting=1;strokeColor=default;fontFamily=Comic Sans MS;fontSize=12;fontColor=default;fillColor=default;" parent="z1glSKTf6uHRRMxj4ChZ-107" vertex="1" connectable="0">
          <mxGeometry x="-0.4352" y="1" relative="1" as="geometry">
            <mxPoint as="offset" />
          </mxGeometry>
        </mxCell>
        <mxCell id="z1glSKTf6uHRRMxj4ChZ-110" style="edgeStyle=orthogonalEdgeStyle;rounded=0;sketch=1;hachureGap=4;jiggle=2;curveFitting=1;orthogonalLoop=1;jettySize=auto;html=1;entryX=1.029;entryY=0.122;entryDx=0;entryDy=0;entryPerimeter=0;fontFamily=Comic Sans MS;fontSource=https%3A%2F%2Ffonts.googleapis.com%2Fcss%3Ffamily%3DArchitects%2BDaughter;fontSize=12;fontColor=default;exitX=0;exitY=0.5;exitDx=0;exitDy=0;fillColor=#ffe6cc;strokeColor=#d79b00;" parent="1" source="z1glSKTf6uHRRMxj4ChZ-103" target="z1glSKTf6uHRRMxj4ChZ-56" edge="1">
          <mxGeometry relative="1" as="geometry" />
        </mxCell>
      </root>
    </mxGraphModel>
  </diagram>
</mxfile>
